<?xml version="1.0" encoding="utf-8"?>
<!-- Generator: Adobe Illustrator 23.0.3, SVG Export Plug-In . SVG Version: 6.00 Build 0)  -->
<svg version="1.1" id="Layer_1" xmlns="http://www.w3.org/2000/svg" xmlns:xlink="http://www.w3.org/1999/xlink" x="0px" y="0px"
	 viewBox="0 0 76.9 74.8" style="enable-background:new 0 0 76.9 74.8;" xml:space="preserve">
<style type="text/css">
	.st0{fill:#C48B00;}
</style>
<g>
	<path class="st0" d="M71.6,66L54.9,49.2C63,38,62.1,22.2,52,12.1c-11.2-11.2-29.4-11.2-40.6,0s-11.2,29.4,0,40.6
		c10.1,10.1,25.9,11,37.1,2.9l16.8,16.8c1.8,1.8,4.6,1.8,6.4,0C73.4,70.6,73.4,67.8,71.6,66z M15.9,48.2c-8.7-8.7-8.7-22.9,0-31.6
		s22.9-8.7,31.6,0s8.7,22.9,0,31.6S24.6,56.9,15.9,48.2z"/>
	<path class="st0" d="M43.1,29.1h-8v-8c0-1.8-1.5-3.4-3.4-3.4c-1.8,0-3.4,1.5-3.4,3.4v8h-8c-1.8,0-3.4,1.5-3.4,3.4
		c0,1.8,1.5,3.4,3.4,3.4h8v8c0,1.8,1.5,3.4,3.4,3.4c1.8,0,3.4-1.5,3.4-3.4v-8h8c1.8,0,3.4-1.5,3.4-3.4
		C46.4,30.6,44.9,29.1,43.1,29.1z"/>
</g>
</svg>
